<?xml version="1.0" encoding="UTF-8" standalone="no"?>
<!-- Created with Inkscape (http://www.inkscape.org/) -->

<svg
   xmlns:dc="http://purl.org/dc/elements/1.1/"
   xmlns:cc="http://creativecommons.org/ns#"
   xmlns:rdf="http://www.w3.org/1999/02/22-rdf-syntax-ns#"
   xmlns:svg="http://www.w3.org/2000/svg"
   xmlns="http://www.w3.org/2000/svg"
   xmlns:xlink="http://www.w3.org/1999/xlink"
   xmlns:sodipodi="http://sodipodi.sourceforge.net/DTD/sodipodi-0.dtd"
   xmlns:inkscape="http://www.inkscape.org/namespaces/inkscape"
   width="512"
   height="512"
   id="svg2"
   version="1.1"
   inkscape:version="0.48.2 r9819"
   sodipodi:docname="logo-jarbeard.svg"
   inkscape:export-filename="/Users/mote/Dropbox/projects/beardedspice.github/images/logo-jarbeard.png"
   inkscape:export-xdpi="2.8099999"
   inkscape:export-ydpi="2.8099999">
  <defs
     id="defs4" />
  <sodipodi:namedview
     id="base"
     pagecolor="#ffffff"
     bordercolor="#666666"
     borderopacity="1.0"
     inkscape:pageopacity="0.0"
     inkscape:pageshadow="2"
     inkscape:zoom="1.0429688"
     inkscape:cx="100.19476"
     inkscape:cy="256"
     inkscape:document-units="px"
     inkscape:current-layer="layer1"
     showgrid="false"
     showborder="true"
     inkscape:window-width="1280"
     inkscape:window-height="752"
     inkscape:window-x="0"
     inkscape:window-y="0"
     inkscape:window-maximized="1" />
  <metadata
     id="metadata7">
    <rdf:RDF>
      <cc:Work
         rdf:about="">
        <dc:format>image/svg+xml</dc:format>
        <dc:type
           rdf:resource="http://purl.org/dc/dcmitype/StillImage" />
        <dc:title></dc:title>
      </cc:Work>
    </rdf:RDF>
  </metadata>
  <g
     inkscape:label="Layer 1"
     inkscape:groupmode="layer"
     id="layer1"
     transform="translate(0,-540.36218)">
    <path
       style="font-size:medium;font-style:normal;font-variant:normal;font-weight:normal;font-stretch:normal;text-indent:0;text-align:start;text-decoration:none;line-height:normal;letter-spacing:normal;word-spacing:normal;text-transform:none;direction:ltr;block-progression:tb;writing-mode:lr-tb;text-anchor:start;baseline-shift:baseline;color:#000000;fill:#000000;fill-opacity:1;stroke:none;stroke-width:10;marker:none;visibility:visible;display:inline;overflow:visible;enable-background:accumulate;font-family:Sans;-inkscape-font-specification:Sans"
       d="m 214.5625,556.33093 -62.5,4.625 -0.5,0.0312 -0.4375,0.28125 -32.40625,20.84375 -1.1875,0.75 0.34375,1.375 1.9375,8.4375 2.15625,9.375 -2.15625,0.15625 0,-9.53125 -27.78125,0 -4.21875,0 -0.71875,4.15625 -1.25,7.5 -2.6875,0.15625 -0.6875,3.90625 -9.25,53.21875 -0.375,2.21875 1.40625,1.75 9.25,11.59375 4.28125,5.34375 3.78125,-5.6875 6.78125,-10.1875 3.375,-0.25 -0.46875,1.25 9.34375,3.53125 2.09375,-5.625 1.8125,-0.15625 -3.53125,8.65625 50.90625,20.8125 0.9375,0.375 0.96875,0 118.03125,0 0.84375,0 0.78125,-0.28125 59.125,-20.4375 17.3125,2.15625 1.03125,0.15625 0.96875,-0.28125 6.75,-1.9375 -3.8125,37.96875 0,-33.90625 -4,0 0,37.0625 -0.40625,0.21875 -2.59375,1.4375 0,2.9375 0,15.28125 -0.96875,2.4375 0.96875,0.8125 0,6.28125 3,-1.71875 0,221.84375 -11.15625,26.8125 -50.15625,34.21882 -69.5838,12.5597 -81.3537,-12.5286 -40.65625,-36.12492 4.65625,-286.03125 -4,-0.0625 -4.625,286.96875 -0.0312,0.9375 0.6875,0.59375 41.65625,37.03117 0.375,0.3439 0.53125,0.125 82.3537,12.7472 0.46875,0.125 70.86505,-12.9036 0.34375,-0.094 0.28125,-0.1875 50.90625,-34.71872 0.5,-0.34375 0.21875,-0.53125 11.5625,-27.78125 0.15625,-0.375 0,-0.375 0,-220.96875 8.6875,7.25 4.5625,3.78125 2.96875,-5.125 8.09375,-13.875 27.125,41.5 11.4375,25.15625 9.125,-4.125 -1.34375,-2.9375 3.6875,-1.59375 -13.875,-32.40625 -0.1875,-0.40625 -0.25,-0.40625 -26.875,-40.28125 11.8125,-28.0625 1.5625,-0.78125 18.53125,-9.25 5.8125,-2.90625 -4.3125,-4.875 -10.46875,-11.78125 -4.625,-18.53125 -0.9375,-3.78125 -3.90625,0 -16.5,0 -1,-2.84375 25.28125,-20.6875 4.28125,-3.5 -3.90625,-3.90625 -9.25,-9.25 -2.4375,-2.4375 -3.15625,1.40625 -18.375,8.15625 -5.875,-6.84375 -8.5,4.90625 0.90625,2.59375 -19.34375,0 0,10 22.875,0 0.625,1.75 -3,-0.3125 -0.84375,8.21875 -17,-1.125 -0.1875,0 -0.15625,0 -4.59375,0 -0.34375,-4.40625 -0.0312,-0.1875 -0.0312,-0.15625 -2.0625,-8.3125 8.625,-10.78125 0.375,-0.46875 0.0625,-0.5625 2.3125,-20.84375 0.15625,-1.53125 -1.4375,-0.53125 -48.59375,-18.53125 -0.3125,-0.125 -0.3125,0 -94.90625,-4.625 -0.0937,0 -0.125,0 z m 0.1875,4 0.0937,0 94.3125,4.59375 46.875,17.875 -2.0625,18.6875 -8.90625,11.125 -0.625,0.78125 0.25,0.96875 2.25,9.03125 0.3125,4 -7.5625,0 -0.59375,0 -0.5625,0.125 -78.09375,18.375 -104.3125,-2.28125 -27.9375,-19.1875 0.5625,-10.4375 0,-0.28125 -0.0625,-0.28125 -6.625,-28.71875 30.78125,-19.78125 61.90625,-4.59375 z m 116.25,32.90625 -56.78125,7.65625 -95.96875,1.53125 -25.8125,-9.09375 -1.34375,3.78125 26.09375,9.1875 0.34375,0.125 0.34375,0 96.65625,-1.53125 0.125,0 0.0937,-0.0312 56.78125,-7.65625 z m -234.71875,9.4375 15.84375,0 -16,1 z m 309.40625,7.90625 2.90625,2.90625 -13.34375,10.9375 0.3125,-3.09375 0.21875,-2.125 -1.375,-1.65625 -1.21875,-1.4375 z m -281.40625,1.375 0.46875,2.0625 -0.4375,7.75 -4,-2.75 -5.65625,8.21875 9,6.1875 -1.21875,22 -0.0625,1.40625 1.3125,0.53125 39.34375,16.21875 0.34375,0.15625 0.40625,0 71.75,0 0.0312,0 0.0312,0 69.4375,-2.3125 0.3125,-0.0312 0.28125,-0.0937 46.28125,-16.1875 1.46875,-0.53125 -0.125,-1.53125 -1.21875,-15.65625 3.84375,0 16.34375,1.09375 -1.03125,10.375 -5.4375,1.96875 3.40625,9.40625 0.9375,-0.34375 -0.40625,4.03125 -9.5625,2.71875 -17.5,-2.1875 -1.15625,-0.15625 -1.125,0.375 -59.34375,20.5625 -116.21875,0 -48.8125,-19.9375 1.90625,-0.15625 -0.75,-9.96875 -0.5625,0.0312 0.96875,-2.5625 -4.96875,-1.875 6.875,0.5 0.71875,-10 -14.75,-1.0625 3.03125,-11.125 -9.65625,-2.65625 -1.59375,5.8125 -3.1875,-0.28125 -0.625,7.40625 -3.1875,-0.21875 4.21875,-25.34375 29.875,-1.84375 z m 3.25,24.125 24.15625,16.625 1.25,0.84375 1.46875,0.0312 106.46875,2.3125 0.625,0.0312 0.625,-0.15625 78.03125,-18.375 7.84375,0 1.125,14.4375 -44.59375,15.59375 -69,2.3125 -0.0625,0 -71.3125,0 -37.625,-15.5 1,-18.15625 z m 254.6875,3.0625 1.40625,0.0937 0.0312,0.0625 -0.53125,5.21875 -1.5,0.53125 0.59375,-5.90625 z m -279.5,10.9375 5,0.34375 -2.125,5.625 -3.59375,0.28125 0.4375,-5.25 z m 291.0625,1.1875 13.71875,0 0.4375,1.71875 -0.1875,0.0625 -6.21875,1.78125 -0.0937,-0.125 -0.28125,0.21875 -9.375,2.6875 0.625,-5.84375 1.375,-0.5 z m -11.8125,4.3125 -0.53125,4.96875 -1.40625,0.40625 0.5,-4.84375 z m 10.5625,12.1875 0,5 5.625,-0.71875 1.90625,-0.25 -1.875,3.90625 -4.1875,4.1875 1.46875,1.46875 -7.875,16.4375 3.09375,-29.5 z m 20.8125,2.375 6.21875,6.96875 -3.84375,1.90625 0.3125,-0.71875 1.1875,-2.8125 -1.9375,-2.34375 -2.4375,-2.9375 z m -33.03125,1.125 -3.71875,35.6875 -1.21875,0.6875 3.59375,-36 z m -15.5,41.625 0.9375,0.0937 -0.9375,0.53125 0,-0.625 z m 10.28125,6.40625 0.21875,0.0625 -0.46875,4.53125 -2.0625,1.1875 z m 4.9375,13.15625 -4.6875,8.03125 -3.8125,-3.1875 z m -181.56824,223.06531 -0.34375,0.125 -62.46875,23.15625 1.375,3.75 62.15625,-23.03125 71.21875,0 64.625,11.53125 0.71875,-3.9375 -64.8125,-11.5625 -0.1875,-0.0312 -0.15625,0 -71.75,0 -0.375,0 z"
       id="path3942"
       inkscape:connector-curvature="0"
       sodipodi:nodetypes="cccccccccccccccccccccccccccccccccccccccccccccccccccccccccccccccccccccccccccccccccccccccccccccccccccccccccccccccccccccccccccccccccccccccccccccccccccccccccccccccccccccccccccccccccccccccccccccccccccccccccccccccccccccccccccccccccccccccccccccccccccccccccccccccccccccccccccccccccccccccccccccccccccccccccccccccccccccccccccccccccccccccccccccccccc" />
    <path
       style="fill:#000000;stroke:none;stroke-width:1px;stroke-linecap:butt;stroke-linejoin:miter;stroke-opacity:1"
       d="m 248.9257,801.12946 9.38301,26.42534 28.43645,13.84081 -1.04986,48.12743 19.31574,9.41361 64.14651,-73.67944 -34.86143,-6.1105 -26.50834,-18.33352 -30.06289,-20.06361 -16.39611,3.39907 z"
       id="path3083"
       inkscape:connector-curvature="0"
       inkscape:transform-center-x="-65.432646"
       inkscape:transform-center-y="30.974125"
       sodipodi:nodetypes="ccccccccccc" />
    <use
       x="0"
       y="0"
       xlink:href="#path3083"
       id="use3085"
       transform="matrix(-0.62134491,-0.78353718,-0.78353718,0.62134491,1023.1137,493.36884)"
       width="512"
       height="512" />
    <path
       style="fill:#000000;stroke:none;stroke-width:1px;stroke-linecap:butt;stroke-linejoin:miter;stroke-opacity:1"
       d="m 283.6368,845.12676 12.67109,4.72381 -9.73582,36.66953 16.76534,10.4684 17.42618,-39.92183 11.48957,-0.15921 -29.92221,70.73111 -44.82914,46.48888 -44.87428,11.32557 -49.14915,-19.49241 29.80664,-79.30614 17.69543,-23.39524 21.61088,12.57354 8.54533,24.17895 13.64247,3.0025 13.39068,-21.39234 z"
       id="path3087"
       inkscape:connector-curvature="0"
       sodipodi:nodetypes="ccccccccccccccccc" />
    <use
       x="0"
       y="0"
       xlink:href="#path3087"
       id="use3089"
       transform="matrix(-0.62134491,-0.78353718,-0.78353718,0.62134491,1019.6413,492.75564)"
       width="512"
       height="512" />
  </g>
  <g
     inkscape:groupmode="layer"
     id="layer2"
     inkscape:label="lines"
     sodipodi:insensitive="true"
     style="display:none">
    <path
       transform="translate(0,-540.36218)"
       inkscape:connector-curvature="0"
       id="path4036"
       d="m 131.40001,623.13891 37.03066,25.45858 106.46317,2.31442 78.69017,-18.51533 16.20092,0 34.71625,2.31441 25.45859,-20.82975 -9.25767,-9.25766 -20.82975,9.25766 -32.40184,0"
       style="fill:none;stroke:#000000;stroke-width:10;stroke-linecap:butt;stroke-linejoin:miter;stroke-miterlimit:4;stroke-opacity:1;stroke-dasharray:none" />
    <path
       transform="translate(0,-540.36218)"
       inkscape:connector-curvature="0"
       id="path4038"
       d="m 404.50118,643.96866 -13.8865,-39.34508 13.8865,16.20091 -11.57208,111.09201"
       style="fill:none;stroke:#000000;stroke-width:10;stroke-linecap:butt;stroke-linejoin:miter;stroke-miterlimit:4;stroke-opacity:1;stroke-dasharray:none" />
    <path
       transform="translate(0,-540.36218)"
       inkscape:connector-curvature="0"
       id="path4040"
       d="m 446.16068,801.349 -11.57208,-25.45858 -39.34508,-60.17484 -9.25767,-2.31442 -9.25767,23.14417 13.8865,11.57208 16.20092,-27.773 18.51533,-43.97391 -11.57208,-13.88651"
       style="fill:none;stroke:#000000;stroke-width:10;stroke-linecap:butt;stroke-linejoin:miter;stroke-miterlimit:4;stroke-opacity:1;stroke-dasharray:none" />
    <path
       transform="translate(0,-540.36218)"
       inkscape:connector-curvature="0"
       id="path4042"
       d="m 411.44443,676.3705 11.57209,11.57208 18.51533,-9.25767 -18.51533,-20.82975 -48.60276,13.8865 -18.51533,-2.31442 -60.17483,20.82976 -118.03526,0 -50.91717,-20.82976"
       style="fill:none;stroke:#000000;stroke-width:10;stroke-linecap:butt;stroke-linejoin:miter;stroke-miterlimit:4;stroke-opacity:1;stroke-dasharray:none" />
    <path
       transform="translate(0,-540.36218)"
       inkscape:connector-curvature="0"
       id="path4044"
       d="m 119.82792,669.42724 6.94325,-18.51533"
       style="fill:none;stroke:#000000;stroke-width:10;stroke-linecap:butt;stroke-linejoin:miter;stroke-miterlimit:4;stroke-opacity:1;stroke-dasharray:none" />
    <path
       transform="translate(0,-540.36218)"
       inkscape:connector-curvature="0"
       id="path4046"
       d="m 138.34326,606.93799 -37.03067,2.31442 -9.257668,53.23158 9.257668,11.57209 9.25767,-13.8865 2.31441,-27.773"
       style="fill:none;stroke:#000000;stroke-width:10;stroke-linecap:butt;stroke-linejoin:miter;stroke-miterlimit:4;stroke-opacity:1;stroke-dasharray:none" />
    <path
       transform="translate(0,-540.36218)"
       inkscape:connector-curvature="0"
       id="path4048"
       d="m 117.51351,627.76774 -6.94325,25.45859 -13.886505,0 9.257665,-55.546 27.773,0"
       style="fill:none;stroke:#000000;stroke-width:10;stroke-linecap:butt;stroke-linejoin:miter;stroke-miterlimit:4;stroke-opacity:1;stroke-dasharray:none" />
    <path
       transform="translate(0,-540.36218)"
       inkscape:connector-curvature="0"
       id="path4050"
       d="m 131.40001,660.16958 -30.08742,2.31441 0,-18.51533 32.40183,2.31442"
       style="fill:none;stroke:#000000;stroke-width:10;stroke-linecap:butt;stroke-linejoin:miter;stroke-miterlimit:4;stroke-opacity:1;stroke-dasharray:none" />
    <path
       transform="translate(0,-540.36218)"
       inkscape:connector-curvature="0"
       id="path4052"
       d="m 448.4751,796.72017 -13.8865,-32.40184 -37.03067,-55.546 -20.82975,11.57208 0,16.20092 16.20092,-9.25767 27.773,-57.86042 -9.25767,-11.57208"
       style="fill:none;stroke:#000000;stroke-width:10;stroke-linecap:butt;stroke-linejoin:miter;stroke-miterlimit:4;stroke-opacity:1;stroke-dasharray:none" />
    <path
       transform="translate(0,-540.36218)"
       inkscape:connector-curvature="0"
       id="path4054"
       d="m 381.35701,655.54074 25.45859,-9.25766 18.51533,0 4.62884,18.51533 -18.51534,2.31442 0,-9.25767"
       style="fill:none;stroke:#000000;stroke-width:10;stroke-linecap:butt;stroke-linejoin:miter;stroke-miterlimit:4;stroke-opacity:1;stroke-dasharray:none" />
    <path
       transform="translate(0,-540.36218)"
       inkscape:connector-curvature="0"
       id="path4056"
       d="m 392.9291,620.82449 -9.25767,92.57667"
       style="fill:none;stroke:#000000;stroke-width:10;stroke-linecap:butt;stroke-linejoin:miter;stroke-miterlimit:4;stroke-opacity:1;stroke-dasharray:none" />
    <path
       transform="translate(0,-540.36218)"
       sodipodi:nodetypes="cccccccc"
       inkscape:connector-curvature="0"
       id="path4058"
       d="m 124.45676,704.1435 -4.62884,286.98767 41.6595,37.03063 83.31901,18.5154 69.4325,-18.5154 50.91717,-34.71621 11.57208,-27.773 0,-286.98768"
       style="fill:none;stroke:#000000;stroke-width:4;stroke-linecap:butt;stroke-linejoin:miter;stroke-miterlimit:4;stroke-opacity:1;stroke-dasharray:none" />
    <path
       transform="translate(0,-540.36218)"
       inkscape:connector-curvature="0"
       id="path4060"
       d="m 138.34326,655.54074 2.31441,-41.6595 -6.94325,-30.08741 32.40184,-20.82976 62.48925,-4.62883 94.89109,4.62883 48.60275,18.51534 -2.31442,20.82975 -9.25767,11.57208 2.31442,9.25767 2.31442,30.08742 -46.28834,16.20091 -69.4325,2.31442 -71.74692,0 z"
       style="fill:none;stroke:#000000;stroke-width:4;stroke-linecap:butt;stroke-linejoin:miter;stroke-miterlimit:4;stroke-opacity:1;stroke-dasharray:none" />
    <path
       transform="translate(0,-540.36218)"
       sodipodi:nodetypes="cccc"
       inkscape:connector-curvature="0"
       id="path4062"
       d="m 140.65767,974.93025 62.48926,-23.14416 71.74691,0 64.80367,11.57208"
       style="fill:none;stroke:#000000;stroke-width:4;stroke-linecap:butt;stroke-linejoin:miter;stroke-miterlimit:4;stroke-opacity:1;stroke-dasharray:none" />
    <path
       inkscape:connector-curvature="0"
       id="path4064"
       d="m 165.67871,54.849473 26.07906,9.204373 96.64592,-1.534062 56.7603,-7.670311"
       style="fill:none;stroke:#000000;stroke-width:4;stroke-linecap:butt;stroke-linejoin:miter;stroke-miterlimit:4;stroke-opacity:1;stroke-dasharray:none" />
  </g>
</svg>
