<?xml version="1.0" encoding="UTF-8" standalone="no"?>
<svg width="20px" height="19px" viewBox="0 0 20 19" version="1.1" xmlns="http://www.w3.org/2000/svg" xmlns:xlink="http://www.w3.org/1999/xlink" xmlns:sketch="http://www.bohemiancoding.com/sketch/ns">
    <title>20x19</title>
    <description>Created with Sketch (http://www.bohemiancoding.com/sketch)</description>
    <defs></defs>
    <g id="Statusbar-Icon" stroke="none" stroke-width="1" fill="none" fill-rule="evenodd" sketch:type="MSPage">
        <g id="20x19" sketch:type="MSArtboardGroup" fill="#000000">
            <path d="M10.5289307,5.03434223 L11.1411743,5.03434223 L11.388696,5.03434223 C11.4815463,5.01666435 11.5855306,5.0055381 11.7006878,5.0055381 C12.1061288,5.0055381 12.7247711,4.98896153 13.2262411,5.01316607 C13.7277111,5.03737065 14.0155261,5.08543826 14.4444242,5.38074328 C14.8733223,5.6760483 14.9669694,6.24302297 14.9669694,6.24302297 C14.9669694,6.24302297 15.0738423,6.9473467 14.9031088,7.56632822 C14.8905133,7.61199209 14.7275772,8.27548896 14.1903203,8.65710554 C13.7175479,8.99291851 13.1689594,9 13.0180534,9 C12.8671473,9.00000002 12.0308572,8.99291851 11.2210189,8.0046748 C10.4111805,7.01643108 10.4454134,6.31820288 10.4454134,6.0758679 C10.4454134,6.04810528 10.4462741,6.02112956 10.4479244,5.99492302 C10.4123558,5.92822745 10.266038,5.68763885 10,5.67425063 C9.73396205,5.68763885 9.58764416,5.92822745 9.55207558,5.99492302 C9.55372595,6.02112956 9.55458662,6.04810528 9.55458663,6.0758679 C9.55458664,6.31820288 9.58881946,7.01643108 8.77898114,8.0046748 C7.96914279,8.99291851 7.13285269,9.00000002 6.98194662,9 C6.83104055,9 6.28245213,8.99291851 5.80967965,8.65710554 C5.27242281,8.27548896 5.10948666,7.61199209 5.09689121,7.56632822 C4.92615774,6.9473467 5.03303063,6.24302297 5.03303063,6.24302297 C5.03303063,6.24302297 5.12667769,5.6760483 5.55557579,5.38074328 C5.98447389,5.08543826 6.27228888,5.03737065 6.77375891,5.01316607 C7.27522894,4.98896153 7.89387123,5.0055381 8.29931219,5.0055381 C8.4144694,5.0055381 8.51845368,5.01666435 8.61130401,5.03434223 L9.19732666,5.03434223 L10,5.03434223 L10.5289307,5.03434223 Z" id="Path-3" sketch:type="MSShapeGroup"></path>
            <path d="M10,17.7223957 C10,17.7437207 9.8922775,17.7377228 9.6899953,17.7223957 C9.48622921,17.7069562 8.46161591,17.2101507 8.46161591,17.2101507 L5.97323448,16.1976028 C5.97323448,16.1976028 5.04832041,12.0328751 5.01486773,11.6325193 C4.98141505,11.2321635 5.61779673,9.89815879 5.61779673,9.89815879 L6.24512593,11.0369956 C6.24512593,11.0369956 7.86494557,9.83819679 8.90798102,9.69591703 C9.21771719,9.63671125 9.99999987,9.67116656 9.99999987,9.67116656 L9.99999987,11.1486011 C9.60264258,11.8954635 8.22583676,12.3590268 6.95492782,11.951739 C6.98989331,12.1439135 7.2173032,14.0069261 8.67628889,13.8736737 C8.79328787,13.8736737 9.31069416,13.2958581 9.99999987,13.2958581" id="Path-4" fill-opacity="0.9" sketch:type="MSShapeGroup"></path>
            <path d="M15,17.7223957 C15,17.7437207 14.8922775,17.7377228 14.6899953,17.7223957 C14.4862292,17.7069562 13.4616159,17.2101507 13.4616159,17.2101507 L10.9732345,16.1976028 C10.9732345,16.1976028 10.0483204,12.0328751 10.0148677,11.6325193 C9.98141505,11.2321635 10.6177967,9.89815879 10.6177967,9.89815879 L11.2451259,11.0369956 C11.2451259,11.0369956 12.8649456,9.83819679 13.907981,9.69591703 C14.2177172,9.63671125 14.9999999,9.67116656 14.9999999,9.67116656 L14.9999999,11.1486011 C14.6026426,11.8954635 13.2258368,12.3590268 11.9549278,11.951739 C11.9898933,12.1439135 12.2173032,14.0069261 13.6762889,13.8736737 C13.7932879,13.8736737 14.3106942,13.2958581 14.9999999,13.2958581" id="Path-4" fill-opacity="0.9" sketch:type="MSShapeGroup" transform="translate(12.500000, 14.000000) scale(-1, 1) translate(-12.500000, -14.000000) "></path>
            <path d="M11,1.12829749 C11,1.12829744 11.5489257,1.08435444 13.2007394,2.0189114 C14.8525532,2.95346837 15.6951931,5.20998277 15.6951931,5.20998277 L15.5601004,5.26275366 C15.5047419,5.28437823 15.4827016,5.34301615 15.5099399,5.39408927 C15.5099399,5.39408927 15.4565735,6.64047169 15.4955392,8.57440758 C15.5345049,10.5083435 15.4955392,10.8274157 15.4955392,10.9503262 C15.4955392,11.0581198 17.2469391,10.9683461 17.3627207,10.8897943 C17.4785023,10.8112426 17.5297907,10.5905656 17.5297907,10.5905656 C17.5297907,10.5905656 18.0530778,10.5471686 18.1457186,10.48622 C18.2383595,10.4252715 18.5112225,10.0227968 18.4690918,8.08056641 C18.4269611,6.13833603 18.3294438,5.8166308 18.1873824,5.72424646 C18.045321,5.63186213 17.5126427,5.58667091 17.5126427,5.58667091 C17.5126427,5.58667091 17.5297907,5.40127813 17.44885,5.34118788 C17.3679092,5.28109763 17.1000265,5.2665887 17.1000265,5.2665887 C17.1000265,5.2665887 16.9600924,4.14780904 16.1560291,2.87879099 C15.3519659,1.60977291 13.7609095,0.934064014 13.7609095,0.934064014 C13.7609095,0.934064014 13.7740624,0.672407855 13.6996073,0.578515359 C13.6251522,0.484622875 13.1180556,0.282703002 12.4837839,0.133468476 C11.8459325,-0.0166083064 11.0000635,0.000597960595 11,0.000599252959" id="Path-1" sketch:type="MSShapeGroup"></path>
            <path d="M4,1.12829749 C4.00000001,1.12829744 4.54892565,1.08435444 6.20073944,2.0189114 C7.85255323,2.95346837 8.69519307,5.20998277 8.69519307,5.20998277 L8.56010043,5.26275366 C8.50474187,5.28437823 8.4827016,5.34301615 8.50993993,5.39408927 C8.50993993,5.39408927 8.45657346,6.64047169 8.49553919,8.57440758 C8.53450489,10.5083435 8.49553924,10.8274157 8.49553924,10.9503262 C8.49553924,11.0581198 10.2469391,10.9683461 10.3627207,10.8897943 C10.4785023,10.8112426 10.5297907,10.5905656 10.5297907,10.5905656 C10.5297907,10.5905656 11.0530778,10.5471686 11.1457186,10.48622 C11.2383595,10.4252715 11.5295134,10.016638 11.4873827,8.07440757 C11.445252,6.13217719 11.3294438,5.8166308 11.1873824,5.72424646 C11.045321,5.63186213 10.5126427,5.58667091 10.5126427,5.58667091 C10.5126427,5.58667091 10.5297907,5.40127813 10.44885,5.34118788 C10.3679092,5.28109763 10.1000265,5.2665887 10.1000265,5.2665887 C10.1000265,5.2665887 9.96009244,4.14780904 9.15602914,2.87879099 C8.35196587,1.60977291 6.76090952,0.934064014 6.76090952,0.934064014 C6.76090952,0.934064014 6.77406239,0.672407855 6.69960728,0.578515359 C6.62515217,0.484622875 6.11805557,0.282703002 5.48378392,0.133468476 C4.84593255,-0.0166083064 4.00006353,0.000597960595 4,0.000599252959 L1.98291016,0 L1.91259766,1.11987305" id="Path-1" sketch:type="MSShapeGroup" transform="translate(6.500000, 5.500000) scale(-1, 1) translate(-6.500000, -5.500000) "></path>
        </g>
    </g>
</svg>